<?xml version="1.0" encoding="UTF-8" standalone="no"?><svg xmlns:svg="http://www.w3.org/2000/svg" xmlns="http://www.w3.org/2000/svg" version="1.1" style="overflow:visible" viewBox="-250 -250 500 500" height="500px" width="500px"><rect fill-opacity="0" fill="rgb(0,0,0)" height="500" width="500" y="-250" x="-250" /><svg version="1.1" y="-250" x="-250" viewBox="-250 -250 500 500" height="500px" width="500px" style="overflow:visible"><g transform="rotate(0,0,0)" stroke-linejoin="round" fill="#fff"><path stroke-linecap="butt" stroke-linejoin="round" stroke-width="4" stroke-opacity="1" stroke="rgb(68,68,68)" fill="rgb(238,0,140)" d="m0-48.85724c-51.49345 0-73.32661 63.64684-76.06641 93.29688c-1.52999 16.55748 12.24335 22.29016 18.13086 7.82226c6.28581-15.44666 14.50586-27.58984 14.50586-27.58984s-8.83063 72.92471-4.064461 101.61719c2.40739 14.49262 23.2873 16.48799 26.75782-1.03907c2.43604-12.30265 5.184-32.644531 20.73633-32.644531c15.55231 0 18.30028 20.34188 20.73632 32.64453c3.47052 17.52706 24.35042 15.53169 26.75781 1.039069c4.76617-28.69248-4.06445-101.61719-4.06445-101.61719s8.22005 12.14318 14.50586 27.58984c5.88751 14.4679 19.66085 8.73522 18.13086-7.82226c-2.73979-29.65004-24.57296-93.29688-76.06641-93.29688z" /><path stroke-linecap="butt" stroke-linejoin="round" stroke-width="4" stroke-opacity="1" stroke="rgb(68,68,68)" fill="rgb(238,0,140)" d="m57-80.77951a56.999996 56.999996 0 0 1-57 57a56.999996 56.999996 0 0 1-57-57a56.999996 56.999996 0 0 1 57-57a56.999996 56.999996 0 0 1 57 57z" /></g></svg></svg>